HIERARCHY
ROOT joint_Root
{
	OFFSET 0.0 0.0 0.0
	CHANNELS 6 Xposition Yposition Zposition Zrotation Xrotation Yrotation 
	JOINT Hips
	{
		OFFSET -0.726466 93.3139 -2.00062
		CHANNELS 6 Xposition Yposition Zposition Zrotation Xrotation Yrotation 
		JOINT Spine
		{
			OFFSET 15.7357 0.0 0.0
			CHANNELS 6 Xposition Yposition Zposition Zrotation Xrotation Yrotation 
			JOINT Chest
			{
				OFFSET 8.98455 -0.406207 0.0
				CHANNELS 6 Xposition Yposition Zposition Zrotation Xrotation Yrotation 
				JOINT Neck
				{
					OFFSET 16.3773 0.0 0.0
					CHANNELS 6 Xposition Yposition Zposition Zrotation Xrotation Yrotation 
					JOINT Head
					{
						OFFSET 6.45672 0.0 0.0
						CHANNELS 6 Xposition Yposition Zposition Zrotation Xrotation Yrotation 
						End Site
						{
							OFFSET 0.0 0.0 0.0
						}
					}
				}
				JOINT Shoulder_L
				{
					OFFSET 12.9942 -0.242716 4.98039
					CHANNELS 6 Xposition Yposition Zposition Zrotation Xrotation Yrotation 
					JOINT UpperArm_L
					{
						OFFSET 5.34809 0.0 0.0
						CHANNELS 6 Xposition Yposition Zposition Zrotation Xrotation Yrotation 
						JOINT LowerArm_L
						{
							OFFSET 24.3286 1.87007e-05 0.0
							CHANNELS 6 Xposition Yposition Zposition Zrotation Xrotation Yrotation 
							JOINT Hand_L
							{
								OFFSET 22.2916 0.0 0.0
								CHANNELS 6 Xposition Yposition Zposition Zrotation Xrotation Yrotation 
								End Site
								{
									OFFSET 0.0 0.0 0.0
								}
							}
						}
					}
				}
				JOINT Shoulder_R
				{
					OFFSET 12.9945 -0.242716 -4.98039
					CHANNELS 6 Xposition Yposition Zposition Zrotation Xrotation Yrotation 
					JOINT UpperArm_R
					{
						OFFSET -5.34813 0.0 0.0
						CHANNELS 6 Xposition Yposition Zposition Zrotation Xrotation Yrotation 
						JOINT LowerArm_R
						{
							OFFSET -24.3289 0.000322201 0.0
							CHANNELS 6 Xposition Yposition Zposition Zrotation Xrotation Yrotation 
							JOINT Hand_R
							{
								OFFSET -22.2915 -0.000108084 0.0
								CHANNELS 6 Xposition Yposition Zposition Zrotation Xrotation Yrotation 
								End Site
								{
									OFFSET 0.0 0.0 0.0
								}
							}
						}
					}
				}
			}
		}
		JOINT UpperLeg_L
		{
			OFFSET -2.19248 -6.46944 0.0
			CHANNELS 6 Xposition Yposition Zposition Zrotation Xrotation Yrotation 
			JOINT LowerLeg_L
			{
				OFFSET 39.0811 0.0 -1.23785e-05
				CHANNELS 6 Xposition Yposition Zposition Zrotation Xrotation Yrotation 
				JOINT Foot_L
				{
					OFFSET 40.9854 0.0 -1.26872e-05
					CHANNELS 6 Xposition Yposition Zposition Zrotation Xrotation Yrotation 
					JOINT Toes_L
					{
						OFFSET 11.7543 0.0 0.0
						CHANNELS 6 Xposition Yposition Zposition Zrotation Xrotation Yrotation 
						End Site
						{
							OFFSET 0.0 0.0 0.0
						}
					}
				}
			}
		}
		JOINT UpperLeg_R
		{
			OFFSET -2.19251 6.46944 0.0
			CHANNELS 6 Xposition Yposition Zposition Zrotation Xrotation Yrotation 
			JOINT LowerLeg_R
			{
				OFFSET -39.0811 -0.00228153 -0.0401928
				CHANNELS 6 Xposition Yposition Zposition Zrotation Xrotation Yrotation 
				JOINT Foot_R
				{
					OFFSET -40.9854 0.0 0.0
					CHANNELS 6 Xposition Yposition Zposition Zrotation Xrotation Yrotation 
					JOINT Toes_R
					{
						OFFSET -11.7543 0.0 0.0
						CHANNELS 6 Xposition Yposition Zposition Zrotation Xrotation Yrotation 
						End Site
						{
							OFFSET 0.0 0.0 0.0
						}
					}
				}
			}
		}
	}
}
MOTION
Frames:	4
Frame Time:	0.0333333
0.000000 0.000000 0.000000 0.000000 0.000000 -0.000000 -0.698375 92.218800 0.123031 87.964500 -1.920760 4.221560 15.735700 0.000005 -0.000001 87.906200 85.355900 -87.358300 8.984550 -0.406207 -0.000000 1.517990 -0.369046 1.099680 16.377300 -0.000001 -0.000001 5.055000 -2.629250 0.936829 6.456720 -0.000001 -0.000000 2.600350 -1.410970 0.520622 12.994200 -0.242716 4.980390 -90.035000 0.110299 -72.417200 5.348090 -0.000007 -0.000001 -67.125800 39.699700 -14.489900 24.328600 0.000019 0.000005 2.017920 4.955200 -22.188500 22.291600 -0.000001 0.000005 3.219600 5.486250 -5.988870 12.994500 -0.242716 -4.980390 87.623700 6.866470 -70.857900 -5.348130 -0.000001 -0.000004 -66.100200 38.622700 -14.579300 -24.328900 0.000322 -0.000009 2.308290 7.587390 -16.984100 -22.291500 -0.000108 -0.000004 9.832000 5.413340 -3.376280 -2.192480 -6.469440 -0.000000 -175.454000 -6.146230 -1.699030 39.081100 -0.000007 -0.000012 -0.116968 0.276911 22.899500 40.985400 -0.000006 -0.000013 -0.524485 2.095730 -67.117200 11.754300 -0.000000 0.000003 -0.000049 -0.000556 -16.599200 -2.192510 6.469440 -0.000001 179.665000 12.205800 -179.822000 -39.081100 -0.002282 -0.040193 -0.028398 0.087781 19.867300 -40.985400 0.000008 0.000006 3.625320 7.444080 -66.337400 -11.754300 -0.000006 -0.000006 -0.007728 -0.085799 -20.066600
0.000000 0.000000 0.000000 0.000000 0.000000 -0.000000 -0.696861 92.215000 0.107489 87.952000 -1.900010 4.248330 15.735700 0.000005 -0.000001 87.784500 85.342400 -87.201300 8.984550 -0.406207 -0.000000 1.544550 -0.391569 1.170730 16.377300 -0.000001 -0.000001 5.006860 -2.634430 1.006750 6.456720 -0.000001 -0.000000 2.545920 -1.386170 0.687239 12.994200 -0.242716 4.980390 -90.100200 0.316545 -72.429500 5.348090 -0.000007 -0.000001 -66.602900 38.058800 -14.815000 24.328600 0.000019 0.000005 3.373440 7.693630 -23.757700 22.291600 -0.000001 0.000005 2.164860 5.487150 -6.024920 12.994500 -0.242716 -4.980390 87.667400 6.745870 -70.874600 -5.348130 -0.000001 -0.000004 -66.233600 38.572200 -14.585400 -24.328900 0.000322 -0.000009 2.302610 7.624870 -16.866300 -22.291500 -0.000108 -0.000004 9.808780 5.413250 -3.373150 -2.192480 -6.469440 -0.000000 -175.433000 -6.136790 -1.706800 39.081100 -0.000007 -0.000012 -0.117054 0.276498 22.945300 40.985400 -0.000006 -0.000013 -0.520049 2.131580 -67.129300 11.754300 -0.000000 0.000003 -0.000044 -0.000504 -16.597200 -2.192510 6.469440 -0.000001 179.668000 12.282700 -179.829000 -39.081100 -0.002282 -0.040193 -0.029948 0.091913 19.898400 -40.985400 0.000008 0.000006 3.579420 7.457620 -66.324400 -11.754300 -0.000006 -0.000006 -0.007642 -0.085087 -20.037500
0.000000 0.000000 0.000000 0.000000 0.000000 -0.000000 -0.694439 92.218100 0.094255 88.000100 -1.841370 4.359500 15.735700 0.000005 -0.000001 88.086500 85.314900 -87.498200 8.984550 -0.406207 -0.000000 1.601000 -0.344354 1.180250 16.377300 -0.000001 -0.000001 5.014120 -2.668600 1.093090 6.456720 -0.000001 -0.000000 2.404990 -1.434540 0.989073 12.994200 -0.242716 4.980390 -90.207000 0.649476 -72.326200 5.348090 -0.000007 -0.000001 -64.843500 36.316100 -15.881000 24.328600 0.000019 0.000005 4.397750 8.740750 -26.843700 22.291600 -0.000001 0.000005 1.366730 5.486990 -6.016550 12.994500 -0.242716 -4.980390 87.697600 6.649670 -70.852400 -5.348130 -0.000001 -0.000004 -66.437500 38.418400 -14.412800 -24.328900 0.000322 -0.000009 2.292190 7.605280 -16.834800 -22.291500 -0.000108 -0.000004 9.847450 5.413100 -3.368000 -2.192480 -6.469440 -0.000000 -175.480000 -6.080490 -1.574400 39.081100 -0.000007 -0.000012 -0.114051 0.270174 22.886600 40.985400 -0.000006 -0.000013 -0.508046 2.159980 -67.098400 11.754300 -0.000000 0.000003 -0.000047 -0.000533 -16.598300 -2.192510 6.469440 -0.000001 179.586000 12.315900 -179.714000 -39.081100 -0.002282 -0.040193 -0.028674 0.088283 19.921800 -40.985400 0.000008 0.000006 3.683290 7.478870 -66.368800 -11.754300 -0.000006 -0.000006 -0.007731 -0.085824 -20.067700
0.000000 0.000000 0.000000 0.000000 0.000000 -0.000000 -0.734686 92.213200 0.048230 87.982000 -1.627580 4.359570 15.735700 0.000005 -0.000001 88.488500 85.329600 -87.882500 8.984550 -0.406207 -0.000000 1.573210 -0.278990 1.214850 16.377300 -0.000001 -0.000001 5.032160 -2.755640 1.231510 6.456720 -0.000001 -0.000000 2.268200 -1.599730 1.350990 12.994200 -0.242716 4.980390 -90.336500 1.046490 -72.176200 5.348090 -0.000007 -0.000001 -61.909900 34.043200 -17.740700 24.328600 0.000019 0.000005 5.169250 8.399280 -31.772000 22.291600 -0.000001 0.000005 0.932392 5.488530 -6.076370 12.994500 -0.242716 -4.980390 87.715100 6.578190 -70.797300 -5.348130 -0.000001 -0.000004 -66.625400 38.249600 -14.141300 -24.328900 0.000322 -0.000009 2.273270 7.510390 -16.901500 -22.291500 -0.000108 -0.000004 9.785790 5.411030 -3.299340 -2.192480 -6.469440 -0.000000 -175.422000 -6.084050 -1.701840 39.081100 -0.000007 -0.000012 -0.115873 0.273107 22.990400 40.985400 -0.000006 -0.000013 -0.497882 2.331190 -67.081700 11.754300 -0.000000 0.000003 -0.000046 -0.000528 -16.598100 -2.192510 6.469440 -0.000001 179.620000 12.484700 -179.751000 -39.081100 -0.002282 -0.040193 -0.031820 0.096846 19.944000 -40.985400 0.000008 0.000006 3.564420 7.418570 -66.333200 -11.754300 -0.000006 -0.000006 -0.007671 -0.085324 -20.047200
